<?xml version="1.0" encoding="UTF-8"?>
<svg version="1.1" xmlns="http://www.w3.org/2000/svg" width="1000" height="1000">
<path d="M0 0 C1.3040352 -0.00320648 2.60807041 -0.00641296 3.95162183 -0.0097166 C7.55309582 -0.01828639 11.15446476 -0.0145312 14.7559402 -0.00866088 C18.68106669 -0.00447366 22.60617459 -0.01190207 26.53129649 -0.01781338 C33.40476302 -0.02656235 40.27819975 -0.02789214 47.15167046 -0.02431011 C57.37305795 -0.01899745 67.59441665 -0.0251041 77.81580101 -0.03339304 C97.134429 -0.0486288 116.45304388 -0.05033854 135.77167663 -0.04787002 C150.6906879 -0.0460369 165.60969487 -0.04779735 180.5287056 -0.05209446 C182.67260118 -0.05269686 184.81649676 -0.05329806 186.96039234 -0.05389806 C190.19109974 -0.05480532 193.42180714 -0.05571399 196.65251453 -0.05663041 C226.68811759 -0.06505938 256.72371904 -0.06939603 286.75932312 -0.06522369 C288.45756032 -0.06498913 288.45756032 -0.06498913 290.19010534 -0.06474983 C295.92824132 -0.06394405 301.6663773 -0.06309828 307.40451327 -0.06223653 C308.54411076 -0.06206544 309.68370825 -0.06189435 310.85783899 -0.06171808 C313.16238169 -0.06137142 315.46692439 -0.06102289 317.77146709 -0.06067249 C353.62898456 -0.05531546 389.48647744 -0.06324542 425.34399033 -0.08170605 C465.63731252 -0.10242612 505.93061947 -0.11314874 546.22394729 -0.10913056 C550.52103917 -0.10873522 554.81813105 -0.10837367 559.11522293 -0.10803318 C560.17326258 -0.10794245 561.23130222 -0.10785172 562.32140368 -0.10775824 C578.28741726 -0.10659269 594.25341546 -0.11323729 610.2194252 -0.1238451 C628.37961526 -0.13589847 646.53977143 -0.13745448 664.69996199 -0.12505493 C674.85913274 -0.11842865 685.01822245 -0.12005209 695.17738672 -0.13364345 C701.96920364 -0.14189588 708.76095993 -0.13918007 715.55277194 -0.12766818 C719.41865687 -0.12141966 723.28438381 -0.1197904 727.15025952 -0.13153151 C756.64530177 -0.21512199 756.64530177 -0.21512199 769.58959579 3.25447559 C770.82933777 3.58036318 770.82933777 3.58036318 772.09412503 3.91283435 C788.70077298 8.71942682 803.38461208 17.25661059 816.58959579 28.25447559 C817.28568954 28.81006153 817.98178329 29.36564747 818.69897079 29.93806934 C840.57358758 47.79588703 854.03488606 76.70541859 857.58959579 104.25447559 C857.84387046 108.33244907 857.8608168 112.39298319 857.84407139 116.47795963 C857.84888111 118.24153784 857.84888111 118.24153784 857.85378799 120.04074389 C857.86062276 123.28236025 857.85860858 126.52382668 857.85273226 129.76544026 C857.84853988 133.300458 857.85597636 136.83545524 857.86188477 140.3704679 C857.87062824 146.5589944 857.87196549 152.7474878 857.8683815 158.93601894 C857.8630659 168.13891222 857.86917843 177.34177355 857.87746443 186.54466335 C857.89269541 203.93886079 857.89441042 221.33304366 857.89194141 238.72724637 C857.89010786 252.16075033 857.89186964 265.59424952 857.89616585 279.02775288 C857.89676825 280.95859042 857.89736945 282.88942797 857.89796945 284.82026552 C857.89887672 287.72995633 857.89978538 290.63964715 857.9007018 293.54933796 C857.90913006 320.59845699 857.91346792 347.64757422 857.90929508 374.69669437 C857.90913871 375.71615513 857.90898233 376.73561588 857.90882122 377.78596938 C857.90801545 382.95284762 857.90716968 388.11972585 857.90630791 393.28660408 C857.90613683 394.31273815 857.90596574 395.33887222 857.90578947 396.39610127 C857.90544281 398.47119317 857.90509428 400.54628506 857.90474388 402.62137696 C857.89938707 434.90745319 857.90731648 467.19350211 857.92577744 499.47957325 C857.94650087 535.76482962 857.95721948 572.05006906 857.95320195 608.33533168 C857.95280661 612.20553287 857.95244506 616.07573406 857.95210457 619.94593525 C857.95201384 620.89885546 857.95192311 621.85177567 857.95182962 622.83357225 C857.95066443 637.208787 857.957306 651.58398465 857.96791649 665.95919514 C857.97997404 682.311455 857.98152105 698.66367723 857.96912632 715.01593766 C857.96250374 724.16197771 857.96411491 733.30792772 857.97771484 742.45396055 C857.98597458 748.57045323 857.98324202 754.68687866 857.97173957 760.80336591 C857.96549823 764.28354116 857.96384294 767.76354106 857.9756029 771.24370602 C858.06506821 804.41547905 851.12514824 832.39703698 829.58959579 858.25447559 C829.03400986 858.95056934 828.47842392 859.64666309 827.90600204 860.36385059 C810.08413855 882.19442593 781.11598794 895.77969371 753.58959579 899.25447559 C749.11670948 899.5153486 744.65877945 899.52543968 740.17919159 899.50895119 C738.87515639 899.51215767 737.57112118 899.51536414 736.22756976 899.51866779 C732.62609577 899.52723758 729.02472683 899.52348239 725.42325139 899.51761206 C721.4981249 899.51342485 717.573017 899.52085326 713.6478951 899.52676457 C706.77442857 899.53551353 699.90099184 899.53684332 693.02752113 899.5332613 C682.80613364 899.52794864 672.58477494 899.53405528 662.36339058 899.54234423 C643.04476259 899.55757999 623.7261477 899.55928973 604.40751496 899.5568212 C589.48850369 899.55498809 574.56949672 899.55674854 559.65048599 899.56104565 C557.50659041 899.56164805 555.36269483 899.56224925 553.21879925 899.56284925 C549.98809185 899.56375651 546.75738445 899.56466518 543.52667706 899.5655816 C513.491074 899.57401057 483.45547255 899.57834722 453.41986847 899.57417488 C451.72163127 899.57394032 451.72163127 899.57394032 449.98908625 899.57370101 C444.25095027 899.57289524 438.51281429 899.57204947 432.77467832 899.57118771 C431.63508083 899.57101662 430.49548334 899.57084554 429.3213526 899.57066926 C427.0168099 899.57032261 424.7122672 899.56997408 422.4077245 899.56962368 C386.55020703 899.56426665 350.69271415 899.5721966 314.83520126 899.59065723 C274.54187907 899.61137731 234.24857212 899.62209992 193.9552443 899.61808175 C189.65815242 899.61768641 185.36106054 899.61732486 181.06396866 899.61698437 C180.00592901 899.61689364 178.94788937 899.6168029 177.85778791 899.61670942 C161.89177433 899.61554388 145.92577613 899.62218848 129.95976639 899.63279629 C111.79957633 899.64484965 93.63942016 899.64640566 75.4792296 899.63400612 C65.32005884 899.62737984 55.16096913 899.62900328 45.00180487 899.64259463 C38.20998795 899.65084707 31.41823166 899.64813126 24.62641965 899.63661937 C20.76053472 899.63037084 16.89480778 899.62874159 13.02893206 899.6404827 C-16.46611018 899.72407318 -16.46611018 899.72407318 -29.41040421 896.25447559 C-30.23689885 896.03721721 -31.0633935 895.81995882 -31.91493344 895.59611684 C-48.52158139 890.78952436 -63.2054205 882.2523406 -76.41040421 871.25447559 C-77.10649796 870.69888966 -77.80259171 870.14330372 -78.51977921 869.57088184 C-100.39439599 851.71306416 -113.85569447 822.80353259 -117.41040421 795.25447559 C-117.66467887 791.17650212 -117.68162521 787.11596799 -117.6648798 783.03099155 C-117.66808628 781.85527275 -117.67129276 780.67955395 -117.6745964 779.4682073 C-117.68143117 776.22659093 -117.67941699 772.98512451 -117.67354068 769.74351093 C-117.66934829 766.20849319 -117.67678477 762.67349594 -117.68269318 759.13848329 C-117.69143665 752.94995678 -117.6927739 746.76146338 -117.68918991 740.57293224 C-117.68387432 731.37003897 -117.68998684 722.16717764 -117.69827284 712.96428784 C-117.71350382 695.5700904 -117.71521883 678.17590753 -117.71274982 660.78170481 C-117.71091627 647.34820086 -117.71267805 633.91470167 -117.71697426 620.48119831 C-117.71757666 618.55036076 -117.71817786 616.61952322 -117.71877786 614.68868567 C-117.71968513 611.77899485 -117.7205938 608.86930404 -117.72151021 605.95961323 C-117.72993847 578.9104942 -117.73427633 551.86137697 -117.73010349 524.81225681 C-117.72994712 523.79279606 -117.72979074 522.77333531 -117.72962963 521.7229818 C-117.72882386 516.55610357 -117.72797809 511.38922534 -117.72711632 506.22234711 C-117.72694524 505.19621304 -117.72677415 504.17007896 -117.72659788 503.11284992 C-117.72625122 501.03775802 -117.72590269 498.96266613 -117.72555229 496.88757423 C-117.72019548 464.601498 -117.72812489 432.31544908 -117.74658585 400.02937794 C-117.76730928 363.74412157 -117.77802789 327.45888212 -117.77401036 291.17361951 C-117.77361502 287.30341832 -117.77325347 283.43321713 -117.77291298 279.56301594 C-117.77282225 278.61009573 -117.77273152 277.65717552 -117.77263803 276.67537894 C-117.77147284 262.30016418 -117.77811441 247.92496653 -117.7887249 233.54975605 C-117.80078245 217.19749619 -117.80232946 200.84527396 -117.78993473 184.49301353 C-117.78331215 175.34697348 -117.78492332 166.20102346 -117.79852325 157.05499064 C-117.80678299 150.93849795 -117.80405043 144.82207253 -117.79254798 138.70558528 C-117.78630664 135.22541003 -117.78465135 131.74541012 -117.79641131 128.26524517 C-117.88587662 95.09347214 -110.94595665 67.11191421 -89.41040421 41.25447559 C-88.85481827 40.55838184 -88.29923233 39.86228809 -87.72681046 39.14510059 C-74.63894869 23.11335665 -55.07200432 11.93957435 -35.72290421 5.37947559 C-34.8804213 5.09306202 -34.03793839 4.80664845 -33.16992569 4.51155567 C-22.20311647 0.98055532 -11.47774342 -0.04224735 0 0 Z " fill="#000000" transform="translate(129.41040420532227,49.745524406433105)"/>
<path d="M0 0 C1.3040352 -0.00320648 2.60807041 -0.00641296 3.95162183 -0.0097166 C7.55309582 -0.01828639 11.15446476 -0.0145312 14.7559402 -0.00866088 C18.68106669 -0.00447366 22.60617459 -0.01190207 26.53129649 -0.01781338 C33.40476302 -0.02656235 40.27819975 -0.02789214 47.15167046 -0.02431011 C57.37305795 -0.01899745 67.59441665 -0.0251041 77.81580101 -0.03339304 C97.134429 -0.0486288 116.45304388 -0.05033854 135.77167663 -0.04787002 C150.6906879 -0.0460369 165.60969487 -0.04779735 180.5287056 -0.05209446 C182.67260118 -0.05269686 184.81649676 -0.05329806 186.96039234 -0.05389806 C190.19109974 -0.05480532 193.42180714 -0.05571399 196.65251453 -0.05663041 C226.68811759 -0.06505938 256.72371904 -0.06939603 286.75932312 -0.06522369 C288.45756032 -0.06498913 288.45756032 -0.06498913 290.19010534 -0.06474983 C295.92824132 -0.06394405 301.6663773 -0.06309828 307.40451327 -0.06223653 C308.54411076 -0.06206544 309.68370825 -0.06189435 310.85783899 -0.06171808 C313.16238169 -0.06137142 315.46692439 -0.06102289 317.77146709 -0.06067249 C353.62898456 -0.05531546 389.48647744 -0.06324542 425.34399033 -0.08170605 C465.63731252 -0.10242612 505.93061947 -0.11314874 546.22394729 -0.10913056 C550.52103917 -0.10873522 554.81813105 -0.10837367 559.11522293 -0.10803318 C560.17326258 -0.10794245 561.23130222 -0.10785172 562.32140368 -0.10775824 C578.28741726 -0.10659269 594.25341546 -0.11323729 610.2194252 -0.1238451 C628.37961526 -0.13589847 646.53977143 -0.13745448 664.69996199 -0.12505493 C674.85913274 -0.11842865 685.01822245 -0.12005209 695.17738672 -0.13364345 C701.96920364 -0.14189588 708.76095993 -0.13918007 715.55277194 -0.12766818 C719.41865687 -0.12141966 723.28438381 -0.1197904 727.15025952 -0.13153151 C756.64530177 -0.21512199 756.64530177 -0.21512199 769.58959579 3.25447559 C770.82933777 3.58036318 770.82933777 3.58036318 772.09412503 3.91283435 C788.70077298 8.71942682 803.38461208 17.25661059 816.58959579 28.25447559 C817.28568954 28.81006153 817.98178329 29.36564747 818.69897079 29.93806934 C840.57358758 47.79588703 854.03488606 76.70541859 857.58959579 104.25447559 C857.84387046 108.33244907 857.8608168 112.39298319 857.84407139 116.47795963 C857.84888111 118.24153784 857.84888111 118.24153784 857.85378799 120.04074389 C857.86062276 123.28236025 857.85860858 126.52382668 857.85273226 129.76544026 C857.84853988 133.300458 857.85597636 136.83545524 857.86188477 140.3704679 C857.87062824 146.5589944 857.87196549 152.7474878 857.8683815 158.93601894 C857.8630659 168.13891222 857.86917843 177.34177355 857.87746443 186.54466335 C857.89269541 203.93886079 857.89441042 221.33304366 857.89194141 238.72724637 C857.89010786 252.16075033 857.89186964 265.59424952 857.89616585 279.02775288 C857.89676825 280.95859042 857.89736945 282.88942797 857.89796945 284.82026552 C857.89887672 287.72995633 857.89978538 290.63964715 857.9007018 293.54933796 C857.90913006 320.59845699 857.91346792 347.64757422 857.90929508 374.69669437 C857.90913871 375.71615513 857.90898233 376.73561588 857.90882122 377.78596938 C857.90801545 382.95284762 857.90716968 388.11972585 857.90630791 393.28660408 C857.90613683 394.31273815 857.90596574 395.33887222 857.90578947 396.39610127 C857.90544281 398.47119317 857.90509428 400.54628506 857.90474388 402.62137696 C857.89938707 434.90745319 857.90731648 467.19350211 857.92577744 499.47957325 C857.94650087 535.76482962 857.95721948 572.05006906 857.95320195 608.33533168 C857.95280661 612.20553287 857.95244506 616.07573406 857.95210457 619.94593525 C857.95201384 620.89885546 857.95192311 621.85177567 857.95182962 622.83357225 C857.95066443 637.208787 857.957306 651.58398465 857.96791649 665.95919514 C857.97997404 682.311455 857.98152105 698.66367723 857.96912632 715.01593766 C857.96250374 724.16197771 857.96411491 733.30792772 857.97771484 742.45396055 C857.98597458 748.57045323 857.98324202 754.68687866 857.97173957 760.80336591 C857.96549823 764.28354116 857.96384294 767.76354106 857.9756029 771.24370602 C858.06506821 804.41547905 851.12514824 832.39703698 829.58959579 858.25447559 C829.03400986 858.95056934 828.47842392 859.64666309 827.90600204 860.36385059 C810.08413855 882.19442593 781.11598794 895.77969371 753.58959579 899.25447559 C749.11670948 899.5153486 744.65877945 899.52543968 740.17919159 899.50895119 C738.87515639 899.51215767 737.57112118 899.51536414 736.22756976 899.51866779 C732.62609577 899.52723758 729.02472683 899.52348239 725.42325139 899.51761206 C721.4981249 899.51342485 717.573017 899.52085326 713.6478951 899.52676457 C706.77442857 899.53551353 699.90099184 899.53684332 693.02752113 899.5332613 C682.80613364 899.52794864 672.58477494 899.53405528 662.36339058 899.54234423 C643.04476259 899.55757999 623.7261477 899.55928973 604.40751496 899.5568212 C589.48850369 899.55498809 574.56949672 899.55674854 559.65048599 899.56104565 C557.50659041 899.56164805 555.36269483 899.56224925 553.21879925 899.56284925 C549.98809185 899.56375651 546.75738445 899.56466518 543.52667706 899.5655816 C513.491074 899.57401057 483.45547255 899.57834722 453.41986847 899.57417488 C451.72163127 899.57394032 451.72163127 899.57394032 449.98908625 899.57370101 C444.25095027 899.57289524 438.51281429 899.57204947 432.77467832 899.57118771 C431.63508083 899.57101662 430.49548334 899.57084554 429.3213526 899.57066926 C427.0168099 899.57032261 424.7122672 899.56997408 422.4077245 899.56962368 C386.55020703 899.56426665 350.69271415 899.5721966 314.83520126 899.59065723 C274.54187907 899.61137731 234.24857212 899.62209992 193.9552443 899.61808175 C189.65815242 899.61768641 185.36106054 899.61732486 181.06396866 899.61698437 C180.00592901 899.61689364 178.94788937 899.6168029 177.85778791 899.61670942 C161.89177433 899.61554388 145.92577613 899.62218848 129.95976639 899.63279629 C111.79957633 899.64484965 93.63942016 899.64640566 75.4792296 899.63400612 C65.32005884 899.62737984 55.16096913 899.62900328 45.00180487 899.64259463 C38.20998795 899.65084707 31.41823166 899.64813126 24.62641965 899.63661937 C20.76053472 899.63037084 16.89480778 899.62874159 13.02893206 899.6404827 C-16.46611018 899.72407318 -16.46611018 899.72407318 -29.41040421 896.25447559 C-30.23689885 896.03721721 -31.0633935 895.81995882 -31.91493344 895.59611684 C-48.52158139 890.78952436 -63.2054205 882.2523406 -76.41040421 871.25447559 C-77.10649796 870.69888966 -77.80259171 870.14330372 -78.51977921 869.57088184 C-100.39439599 851.71306416 -113.85569447 822.80353259 -117.41040421 795.25447559 C-117.66467887 791.17650212 -117.68162521 787.11596799 -117.6648798 783.03099155 C-117.66808628 781.85527275 -117.67129276 780.67955395 -117.6745964 779.4682073 C-117.68143117 776.22659093 -117.67941699 772.98512451 -117.67354068 769.74351093 C-117.66934829 766.20849319 -117.67678477 762.67349594 -117.68269318 759.13848329 C-117.69143665 752.94995678 -117.6927739 746.76146338 -117.68918991 740.57293224 C-117.68387432 731.37003897 -117.68998684 722.16717764 -117.69827284 712.96428784 C-117.71350382 695.5700904 -117.71521883 678.17590753 -117.71274982 660.78170481 C-117.71091627 647.34820086 -117.71267805 633.91470167 -117.71697426 620.48119831 C-117.71757666 618.55036076 -117.71817786 616.61952322 -117.71877786 614.68868567 C-117.71968513 611.77899485 -117.7205938 608.86930404 -117.72151021 605.95961323 C-117.72993847 578.9104942 -117.73427633 551.86137697 -117.73010349 524.81225681 C-117.72994712 523.79279606 -117.72979074 522.77333531 -117.72962963 521.7229818 C-117.72882386 516.55610357 -117.72797809 511.38922534 -117.72711632 506.22234711 C-117.72694524 505.19621304 -117.72677415 504.17007896 -117.72659788 503.11284992 C-117.72625122 501.03775802 -117.72590269 498.96266613 -117.72555229 496.88757423 C-117.72019548 464.601498 -117.72812489 432.31544908 -117.74658585 400.02937794 C-117.76730928 363.74412157 -117.77802789 327.45888212 -117.77401036 291.17361951 C-117.77361502 287.30341832 -117.77325347 283.43321713 -117.77291298 279.56301594 C-117.77282225 278.61009573 -117.77273152 277.65717552 -117.77263803 276.67537894 C-117.77147284 262.30016418 -117.77811441 247.92496653 -117.7887249 233.54975605 C-117.80078245 217.19749619 -117.80232946 200.84527396 -117.78993473 184.49301353 C-117.78331215 175.34697348 -117.78492332 166.20102346 -117.79852325 157.05499064 C-117.80678299 150.93849795 -117.80405043 144.82207253 -117.79254798 138.70558528 C-117.78630664 135.22541003 -117.78465135 131.74541012 -117.79641131 128.26524517 C-117.88587662 95.09347214 -110.94595665 67.11191421 -89.41040421 41.25447559 C-88.85481827 40.55838184 -88.29923233 39.86228809 -87.72681046 39.14510059 C-74.63894869 23.11335665 -55.07200432 11.93957435 -35.72290421 5.37947559 C-34.8804213 5.09306202 -34.03793839 4.80664845 -33.16992569 4.51155567 C-22.20311647 0.98055532 -11.47774342 -0.04224735 0 0 Z M-80.41040421 51.25447559 C-100.5047426 76.49452788 -104.73135646 103.29599561 -104.67354068 134.73045899 C-104.6693389 138.22479756 -104.67678999 141.71911567 -104.68269318 145.21344912 C-104.69142663 151.32745122 -104.6927775 157.44141982 -104.68918991 163.5554266 C-104.68386902 172.64747128 -104.6899921 181.73948369 -104.69827284 190.83152486 C-104.71349461 208.01633919 -104.71521982 225.20113876 -104.71274982 242.38595842 C-104.71091563 255.65732452 -104.71267941 268.92868581 -104.71697426 282.20005131 C-104.71757666 284.10818798 -104.71817786 286.01632464 -104.71877786 287.92446131 C-104.71968513 290.79999312 -104.7205938 293.67552493 -104.72151021 296.55105674 C-104.72993692 323.27795329 -104.73427735 350.00484803 -104.73010349 376.73174572 C-104.72994712 377.73881156 -104.72979074 378.7458774 -104.72962963 379.78346038 C-104.72882387 384.88742457 -104.7279781 389.99138875 -104.72711632 395.09535293 C-104.72694524 396.10897881 -104.72677415 397.12260469 -104.72659788 398.1669465 C-104.72625122 400.21674235 -104.72590269 402.26653819 -104.72555229 404.31633404 C-104.72019473 436.21336872 -104.72812767 468.11037576 -104.74658585 500.00740528 C-104.76730956 535.86125245 -104.77802792 571.7150825 -104.77401036 607.56893599 C-104.77361503 611.39304677 -104.77325348 615.21715756 -104.77291298 619.04126835 C-104.77282225 619.98283035 -104.77273152 620.92439236 -104.77263803 621.89448655 C-104.77147295 636.09696259 -104.77811353 650.29942132 -104.7887249 664.50189304 C-104.80078263 680.65647644 -104.80232916 696.81102175 -104.78993473 712.96560572 C-104.78331265 722.00056717 -104.78492219 731.03543747 -104.79852325 740.07039159 C-104.80678385 746.11277154 -104.80404932 752.1550834 -104.79254798 758.19745784 C-104.78630755 761.63526859 -104.78464897 765.07290186 -104.79641131 768.51070218 C-104.84370239 785.82897031 -104.63685988 802.11592337 -97.78540421 818.31697559 C-97.4376796 819.15494678 -97.08995499 819.99291798 -96.73169327 820.85628223 C-90.80905779 834.7184721 -83.11553378 845.68987939 -72.41040421 856.25447559 C-71.52481827 857.15037403 -70.63923233 858.04627247 -69.72681046 858.96931934 C-54.86564041 873.30052195 -36.2880457 880.79914216 -16.41040421 885.25447559 C-15.79108339 885.43255325 -15.17176258 885.61063091 -14.53367446 885.79410486 C-11.98687002 886.34630693 -9.64665223 886.38070904 -7.03964257 886.38212609 C-5.94105568 886.38514206 -4.84246878 886.38815803 -3.71059138 886.39126539 C-2.50155742 886.38949592 -1.29252346 886.38772645 -0.04685211 886.38590336 C1.24119884 886.38795599 2.5292498 886.39000863 3.8563326 886.39212346 C7.45024662 886.39770102 11.04413686 886.3970157 14.63805383 886.39534587 C18.54110376 886.39461616 22.4441469 886.39963447 26.34719396 886.40392089 C34.0970235 886.41151046 41.84684616 886.41369444 49.59667904 886.41424994 C58.8762906 886.41516267 68.15589577 886.42182757 77.43550459 886.42859677 C99.86871567 886.44467015 122.30192609 886.45056193 144.73514189 886.45534552 C155.34705104 886.45768051 165.95895964 886.46128309 176.57086836 886.46504089 C212.89313371 886.47787868 249.21539875 886.48859681 285.53766632 886.4920435 C287.81859754 886.49226513 290.09952876 886.49248691 292.38045998 886.49270885 C294.66693025 886.49292949 296.95340052 886.49314997 299.23987079 886.49337029 C303.82698615 886.49381285 308.41410152 886.49425996 313.00121689 886.49470997 C314.13855817 886.49481936 315.27589946 886.49492875 316.44770563 886.49504146 C353.31602662 886.49867111 390.18432794 886.51458653 427.0526414 886.53790033 C466.02666749 886.56250063 505.00068234 886.57621647 543.97471642 886.57741141 C548.25395855 886.57758287 552.53320066 886.5777983 556.81244278 886.57804585 C558.39296135 886.5781295 558.39296135 886.5781295 560.00540959 886.57821484 C576.95847583 886.57936524 593.91152189 886.59038651 610.86458131 886.6049329 C627.90945378 886.61930499 644.95430038 886.62253089 661.99917725 886.61449292 C672.1227608 886.61003972 682.24626082 886.61388486 692.36983339 886.62973143 C699.13820869 886.63949507 705.90652561 886.63828995 712.67490041 886.6282952 C716.52754098 886.62291309 720.3800214 886.62216084 724.23264858 886.63480392 C751.01802747 886.75585824 751.01802747 886.75585824 776.65209579 879.62947559 C777.49006699 879.28175098 778.32803818 878.93402637 779.19140244 878.57576466 C793.0535923 872.65312918 804.02499959 864.95960517 814.58959579 854.25447559 C815.48549423 853.36888966 816.38139267 852.48330372 817.30443954 851.57088184 C827.97729673 840.50334273 834.43245518 827.57801774 839.58959579 813.25447559 C839.90670517 812.42303028 840.22381454 811.59158497 840.55053329 810.73494434 C844.15006795 800.84513379 844.88741493 790.60283162 844.84407139 780.16151714 C844.84727787 778.99990452 844.85048434 777.8382919 844.85378799 776.6414789 C844.86062165 773.43941014 844.85860931 770.23749323 844.85273226 767.03542731 C844.84853922 763.54325087 844.85597674 760.05109514 844.86188477 756.55892384 C844.8706276 750.44555697 844.87196572 744.33222361 844.8683815 738.21885204 C844.86306551 729.12761288 844.86917886 720.03640604 844.87746443 710.94517039 C844.89269523 693.76130268 844.8944104 676.57744972 844.89194141 659.39357667 C844.89010771 646.12122644 844.89186996 632.84888104 844.89616585 619.57653141 C844.89676825 617.6687043 844.89736945 615.7608772 844.89796945 613.85305009 C844.89887672 610.97800287 844.89978539 608.10295566 844.9007018 605.22790844 C844.90913017 578.50030293 844.91346789 551.77269924 844.90929508 525.04509258 C844.90913871 524.03774515 844.90898233 523.03039772 844.90882122 521.9925246 C844.90801545 516.88707468 844.90716968 511.78162477 844.90630791 506.67617486 C844.90613683 505.6622467 844.90596574 504.64831854 844.90578947 503.60366528 C844.90544281 501.55325597 844.90509428 499.50284666 844.90474388 497.45243735 C844.89938796 465.55570999 844.9073139 433.65901029 844.92577744 401.76228809 C844.94650565 365.91136608 844.95721849 330.0604612 844.95320195 294.20953286 C844.95280662 290.38479336 844.95244507 286.56005387 844.95210457 282.73531437 C844.95201384 281.79359421 844.95192311 280.85187405 844.95182962 279.88161692 C844.95066488 265.68095365 844.95730269 251.48030772 844.96791649 237.27964878 C844.97998013 221.12287822 844.98151412 204.96614576 844.96912632 188.80937462 C844.96250885 179.77484394 844.96410303 170.74040443 844.97771484 161.70588109 C844.98598479 155.66116468 844.98322886 149.61651625 844.97173957 143.57180531 C844.96550822 140.13426523 844.96381667 136.69690248 844.9756029 133.25937293 C845.06369239 101.05355945 840.05022965 72.75361582 817.58959579 48.25447559 C816.32502548 46.86808887 816.32502548 46.86808887 815.03490829 45.45369434 C796.76709965 26.31220789 770.69738848 13.81466365 744.14634264 12.97610486 C736.81857254 12.83925676 729.49108466 12.84384867 722.16242594 12.86287157 C718.26998518 12.86963124 714.37758374 12.85889046 710.48515159 12.85047573 C703.67518936 12.83814507 696.86529607 12.83688077 690.05532646 12.84302616 C679.92827805 12.85214037 669.80129306 12.84406664 659.6742495 12.83273492 C641.58343552 12.81309078 623.49265023 12.81071628 605.40182813 12.81593012 C589.56817639 12.82049106 573.734536 12.81988342 557.90088463 12.81408978 C555.77523177 12.8133329 553.64957891 12.81257692 551.52392605 12.81182183 C548.32057621 12.81067661 545.11722636 12.80952673 541.91387652 12.80836259 C512.14047948 12.79766094 482.36708621 12.79292889 452.59368801 12.80083275 C451.47186676 12.80112992 450.35004551 12.8014271 449.19422967 12.80173327 C440.08483134 12.80418209 430.97543306 12.80679374 421.86603478 12.80941741 C386.3367774 12.81951909 350.80756729 12.81116456 315.2783165 12.78792286 C275.33908136 12.76183846 235.39987468 12.74900547 195.46063071 12.75611061 C191.20033857 12.75682665 186.94004642 12.75750104 182.67975426 12.75815105 C181.63080178 12.75832086 180.58184931 12.75849067 179.5011104 12.75866563 C163.68190279 12.76096651 147.86272165 12.7530017 132.04351997 12.73985958 C114.0485588 12.72493635 96.05365955 12.72412127 78.05869969 12.74193049 C67.99565379 12.75148029 57.9327524 12.75008563 47.8697162 12.7326958 C41.13828257 12.72217947 34.40695862 12.72634433 27.67553573 12.74217584 C23.84663724 12.75077821 20.01802115 12.75330526 16.18913754 12.73790652 C-22.48467114 12.59329196 -53.84893806 21.61456315 -80.41040421 51.25447559 Z " fill="#FCFCFC" transform="translate(129.41040420532227,49.745524406433105)"/>
<path d="M0 0 C23.43 0 46.86 0 71 0 C71 13.86 71 27.72 71 42 C85.52 42 100.04 42 115 42 C115 28.14 115 14.28 115 0 C138.43 0 161.86 0 186 0 C186 39.27 186 78.54 186 119 C163.23 119 140.46 119 117 119 C117 118.34 117 117.68 117 117 C116.34 117 115.68 117 115 117 C115 103.14 115 89.28 115 75 C100.15 75 85.3 75 70 75 C70 89.52 70 104.04 70 119 C47.56 119 25.12 119 2 119 C2 118.34 2 117.68 2 117 C1.34 117 0.68 117 0 117 C0 78.39 0 39.78 0 0 Z " fill="#A30E00" transform="translate(233,517)"/>
<path d="M0 0 C23.43 0 46.86 0 71 0 C71.33 16.83 71.66 33.66 72 51 C79.76209368 43.28134776 79.76209368 43.28134776 87.03125 35.25390625 C89.58978647 32.32478811 92.23051997 29.4764465 94.875 26.625 C98.50361287 22.70895554 102.11767886 18.7824412 105.6875 14.8125 C106.70548424 13.70677139 106.70548424 13.70677139 107.74403381 12.57870483 C110.02263328 10.06258842 110.02263328 10.06258842 111.8591156 7.37686157 C114.91726201 3.30836454 117.28102722 0.45433017 122.31082153 -0.87506104 C126.26354209 -1.15471099 130.14443015 -1.127949 134.09765625 -0.9765625 C135.54205901 -0.95787593 136.98652581 -0.94365798 138.43101501 -0.9336853 C142.20567491 -0.8957727 145.9763936 -0.79780808 149.74951172 -0.68664551 C153.61046025 -0.58374393 157.47205547 -0.5385499 161.33398438 -0.48828125 C168.89110645 -0.38151447 176.44499799 -0.21120347 184 0 C182.00506147 9.24739643 170.9253368 17.11733993 164.37060547 23.6105957 C161.30376776 26.65775936 158.28832169 29.69157685 155.5 33 C153.20126417 35.68371491 150.82467045 38.21132366 148.2890625 40.671875 C147.60779297 41.34089844 146.92652344 42.00992188 146.22460938 42.69921875 C144.84453376 44.04719958 143.45797155 45.388577 142.06445312 46.72265625 C141.42701172 47.34527344 140.78957031 47.96789062 140.1328125 48.609375 C139.55418457 49.16592773 138.97555664 49.72248047 138.37939453 50.29589844 C136.77754133 52.27482505 136.15264376 53.45140537 136 56 C137.1318983 57.89940797 137.1318983 57.89940797 138.9375 59.609375 C139.58589844 60.28226563 140.23429688 60.95515625 140.90234375 61.6484375 C141.59457031 62.34195313 142.28679687 63.03546875 143 63.75 C144.33466863 65.11849064 145.66800577 66.48828114 147 67.859375 C147.66708984 68.54193359 148.33417969 69.22449219 149.02148438 69.92773438 C151.5625881 72.58924578 153.97312559 75.35022992 156.37890625 78.13378906 C158.70020106 80.80607483 161.09788014 83.40005851 163.5 86 C167.07546083 89.88063141 170.59535932 93.79881961 174.0390625 97.796875 C175.67202748 99.63152091 177.33372065 101.42131703 179.0234375 103.203125 C179.56427979 103.77683838 180.10512207 104.35055176 180.66235352 104.94165039 C181.74016134 106.08196756 182.82376139 107.21684534 183.91381836 108.34545898 C190 114.80115529 190 114.80115529 190 119 C180.37705921 119.23236564 170.75509299 119.40971048 161.12995243 119.51812172 C156.65975986 119.57017285 152.1914951 119.64068523 147.72241211 119.75439453 C143.40393282 119.86357611 139.08729924 119.92294691 134.7675457 119.94877243 C133.12515652 119.96715879 131.48286123 120.00306767 129.84126472 120.05730057 C117.00545159 120.4642357 117.00545159 120.4642357 112.02883911 116.83067322 C109.74970688 114.32683036 107.85443657 111.82722119 106 109 C105.06736118 107.82138862 104.12592819 106.64962636 103.171875 105.48828125 C102.37265625 104.44027344 101.5734375 103.39226562 100.75 102.3125 C96.26780622 96.50591204 91.55569191 90.942944 86.72265625 85.42651367 C82.57841413 80.69121775 78.56534092 75.87098749 74.609375 70.9765625 C73.15156824 69.11761362 73.15156824 69.11761362 72 68 C71.67 84.83 71.34 101.66 71 119 C48.23 119 25.46 119 2 119 C2 118.34 2 117.68 2 117 C1.34 117 0.68 117 0 117 C0 78.39 0 39.78 0 0 Z " fill="#A30E00" transform="translate(769,517)"/>
<path d="M0 0 C0.76550674 -0.0049649 1.53101349 -0.00992981 2.31971741 -0.01504517 C4.82903985 -0.02953638 7.33829899 -0.03644872 9.84765625 -0.04199219 C10.71398682 -0.04481956 11.58031738 -0.04764694 12.47290039 -0.05056 C17.06250304 -0.06550366 21.65207468 -0.07476215 26.24169922 -0.07910156 C30.93702302 -0.08456277 35.63205342 -0.10855484 40.32728577 -0.13707352 C43.9771604 -0.15587846 47.62696705 -0.160915 51.27688599 -0.16243744 C53.0053161 -0.16542709 54.73374612 -0.17332746 56.46212769 -0.18662262 C76.41966301 -0.32912055 97.89668403 1.86804923 113.09765625 16.22753906 C122.45092969 26.11381154 123.91015625 34.70123422 123.91015625 48.16113281 C102.13015625 48.16113281 80.35015625 48.16113281 57.91015625 48.16113281 C57.91015625 47.50113281 57.91015625 46.84113281 57.91015625 46.16113281 C57.25015625 46.16113281 56.59015625 46.16113281 55.91015625 46.16113281 C55.82121094 45.54625 55.73226562 44.93136719 55.640625 44.29785156 C55.03891611 41.58366829 54.35509535 39.54401484 52.91015625 37.16113281 C45.43326852 32.62459419 34.38161148 33.24483255 25.91015625 34.16113281 C20.82109769 35.64227672 17.08664495 37.18793548 14.31738281 41.83251953 C12.06578138 47.15839288 12.42790799 52.38826545 12.46411133 58.1015625 C12.47263615 60.15628847 12.4437957 62.20824222 12.41210938 64.26269531 C12.41275391 65.56980469 12.41339844 66.87691406 12.4140625 68.22363281 C12.41220947 69.41085937 12.41035645 70.59808594 12.40844727 71.82128906 C13.13286668 76.64370151 15.34274308 79.78370911 18.97265625 82.97363281 C23.60426995 85.81236379 28.34623019 85.41675816 33.59765625 85.47363281 C34.47099609 85.50263672 35.34433594 85.53164063 36.24414062 85.56152344 C42.56832784 85.62292331 46.71956336 84.9120813 51.91015625 81.16113281 C53.23015625 77.86113281 54.55015625 74.56113281 55.91015625 71.16113281 C78.35015625 71.16113281 100.79015625 71.16113281 123.91015625 71.16113281 C123.91015625 84.61129093 122.73048926 95.18278436 113.41015625 105.34863281 C105.74596263 112.49223969 96.00567376 116.76588448 85.91015625 119.16113281 C85.175159 119.33987946 84.44016174 119.5186261 83.68289185 119.70278931 C74.59403812 121.62976654 65.52221273 121.48924421 56.27734375 121.49707031 C54.47290954 121.50351451 52.66847633 121.51024401 50.86404419 121.51724243 C47.093583 121.52916245 43.32321305 121.53292886 39.55273438 121.53173828 C34.76891798 121.5315357 29.98569968 121.55879862 25.20202446 121.5932827 C21.47660749 121.61574479 17.7513299 121.61956993 14.0258522 121.61851883 C12.26475089 121.62084739 10.50364405 121.62951181 8.74261093 121.64518356 C-11.29892967 121.806814 -29.94442381 118.72060328 -44.96875 104.32128906 C-56.97076053 92.09824703 -59.62370144 78.95243446 -59.53588867 62.31274414 C-59.52739551 59.86355956 -59.55618815 57.41672795 -59.58789062 54.96777344 C-59.65722706 39.55343628 -56.53269308 27.02191008 -45.83984375 15.47363281 C-33.48498329 3.86917602 -16.51595196 0.02624338 0 0 Z " fill="#A30E00" transform="translate(637.08984375,515.8388671875)"/>
<path d="M0 0 C0.76550674 -0.0049649 1.53101349 -0.00992981 2.31971741 -0.01504517 C4.82903985 -0.02953638 7.33829899 -0.03644872 9.84765625 -0.04199219 C10.71398682 -0.04481956 11.58031738 -0.04764694 12.47290039 -0.05056 C17.06250304 -0.06550366 21.65207468 -0.07476215 26.24169922 -0.07910156 C30.93702302 -0.08456277 35.63205342 -0.10855484 40.32728577 -0.13707352 C43.9771604 -0.15587846 47.62696705 -0.160915 51.27688599 -0.16243744 C53.0053161 -0.16542709 54.73374612 -0.17332746 56.46212769 -0.18662262 C76.41966301 -0.32912055 97.89668403 1.86804923 113.09765625 16.22753906 C122.45092969 26.11381154 123.91015625 34.70123422 123.91015625 48.16113281 C102.13015625 48.16113281 80.35015625 48.16113281 57.91015625 48.16113281 C57.91015625 47.50113281 57.91015625 46.84113281 57.91015625 46.16113281 C57.25015625 46.16113281 56.59015625 46.16113281 55.91015625 46.16113281 C55.82121094 45.54625 55.73226562 44.93136719 55.640625 44.29785156 C55.03891611 41.58366829 54.35509535 39.54401484 52.91015625 37.16113281 C45.43326852 32.62459419 34.38161148 33.24483255 25.91015625 34.16113281 C20.82109769 35.64227672 17.08664495 37.18793548 14.31738281 41.83251953 C12.06578138 47.15839288 12.42790799 52.38826545 12.46411133 58.1015625 C12.47263615 60.15628847 12.4437957 62.20824222 12.41210938 64.26269531 C12.41275391 65.56980469 12.41339844 66.87691406 12.4140625 68.22363281 C12.41220947 69.41085937 12.41035645 70.59808594 12.40844727 71.82128906 C13.13286668 76.64370151 15.34274308 79.78370911 18.97265625 82.97363281 C23.60426995 85.81236379 28.34623019 85.41675816 33.59765625 85.47363281 C34.47099609 85.50263672 35.34433594 85.53164063 36.24414062 85.56152344 C42.56832784 85.62292331 46.71956336 84.9120813 51.91015625 81.16113281 C53.23015625 77.86113281 54.55015625 74.56113281 55.91015625 71.16113281 C78.35015625 71.16113281 100.79015625 71.16113281 123.91015625 71.16113281 C123.91015625 84.61129093 122.73048926 95.18278436 113.41015625 105.34863281 C105.74596263 112.49223969 96.00567376 116.76588448 85.91015625 119.16113281 C85.175159 119.33987946 84.44016174 119.5186261 83.68289185 119.70278931 C74.59403812 121.62976654 65.52221273 121.48924421 56.27734375 121.49707031 C54.47290954 121.50351451 52.66847633 121.51024401 50.86404419 121.51724243 C47.093583 121.52916245 43.32321305 121.53292886 39.55273438 121.53173828 C34.76891798 121.5315357 29.98569968 121.55879862 25.20202446 121.5932827 C21.47660749 121.61574479 17.7513299 121.61956993 14.0258522 121.61851883 C12.26475089 121.62084739 10.50364405 121.62951181 8.74261093 121.64518356 C-11.29892967 121.806814 -29.94442381 118.72060328 -44.96875 104.32128906 C-56.97076053 92.09824703 -59.62370144 78.95243446 -59.53588867 62.31274414 C-59.52739551 59.86355956 -59.55618815 57.41672795 -59.58789062 54.96777344 C-59.65722706 39.55343628 -56.53269308 27.02191008 -45.83984375 15.47363281 C-33.48498329 3.86917602 -16.51595196 0.02624338 0 0 Z " fill="#A30E00" transform="translate(101.08984375,515.8388671875)"/>
<path d="M0 0 C47.19 0 94.38 0 143 0 C143 10.89 143 21.78 143 33 C119.24 33 95.48 33 71 33 C71 36.3 71 39.6 71 43 C91.79 43 112.58 43 134 43 C134 53.23 134 63.46 134 74 C113.21 74 92.42 74 71 74 C71 77.63 71 81.26 71 85 C95.42 85 119.84 85 145 85 C145 96.22 145 107.44 145 119 C97.81 119 50.62 119 2 119 C2 118.34 2 117.68 2 117 C1.34 117 0.68 117 0 117 C0 78.39 0 39.78 0 0 Z " fill="#A30E00" transform="translate(427,517)"/>
<path d="M0 0 C1.68431877 -0.0099852 1.68431877 -0.0099852 3.40266418 -0.02017212 C5.76492695 -0.03023577 8.12721778 -0.0349911 10.48950195 -0.03466797 C14.0553403 -0.03902985 17.61992759 -0.07538839 21.18554688 -0.11328125 C40.90040503 -0.21034283 60.95635749 1.67332652 76.6328125 15.02734375 C85.24663981 23.81969597 87.89453125 32.15395153 87.89453125 44.3359375 C70.07453125 44.3359375 52.25453125 44.3359375 33.89453125 44.3359375 C32.57453125 41.6959375 31.25453125 39.0559375 29.89453125 36.3359375 C24.72048043 32.99436301 20.02762585 32.18671363 13.95703125 32.1484375 C12.93738281 32.13425781 11.91773438 32.12007813 10.8671875 32.10546875 C6.66859725 32.43098363 3.88429659 33.34617216 0.89453125 36.3359375 C0.73969686 39.83853832 0.73969686 39.83853832 1.89453125 43.3359375 C6.65688442 46.49225228 11.00006937 46.87964168 16.52734375 47.14453125 C18.22869477 47.25006174 19.93002882 47.35586604 21.63134766 47.46191406 C22.51252258 47.51222778 23.39369751 47.5625415 24.30157471 47.61437988 C73.13157324 50.47196171 73.13157324 50.47196171 86.08203125 64.3359375 C91.65105203 71.15394711 92.39582786 77.6402902 92.33203125 86.1484375 C92.35201172 87.08236328 92.37199219 88.01628906 92.39257812 88.97851562 C92.38497707 99.93163639 88.17673406 108.74264188 80.89453125 116.8359375 C68.79706856 128.56995711 49.9779583 131.65057613 33.8515625 131.63671875 C32.1615638 131.64314644 32.1615638 131.64314644 30.43742371 131.64970398 C28.06497872 131.65541735 25.69251622 131.65596977 23.32006836 131.65161133 C19.73455096 131.64846167 16.14986825 131.67191396 12.56445312 131.69726562 C-7.98023182 131.75460486 -27.7568352 130.35716142 -44.10546875 116.3359375 C-50.22557848 110.23973445 -54.07819271 102.71596794 -56.10546875 94.3359375 C-56.10546875 91.0359375 -56.10546875 87.7359375 -56.10546875 84.3359375 C-38.28546875 84.3359375 -20.46546875 84.3359375 -2.10546875 84.3359375 C-0.78546875 87.3059375 0.53453125 90.2759375 1.89453125 93.3359375 C7.33077147 97.75160697 12.12289566 97.93071902 18.95703125 97.7734375 C19.82908203 97.78052734 20.70113281 97.78761719 21.59960938 97.79492188 C26.74693881 97.74426685 30.46471731 97.23480774 34.89453125 94.3359375 C36.29388138 91.53723723 36.1471853 89.43094958 35.89453125 86.3359375 C33.75248431 83.00386448 30.57182024 82.39436238 26.89453125 81.3359375 C24.5838332 81.08425218 22.2633805 80.91398144 19.94140625 80.80859375 C18.59471195 80.74003247 17.24803277 80.67117374 15.90136719 80.60205078 C15.20555542 80.56919983 14.50974365 80.53634888 13.79284668 80.50250244 C-34.31768319 78.17201624 -34.31768319 78.17201624 -49.04296875 62.4609375 C-54.74617785 55.98702447 -55.61216317 48.65773565 -55.54296875 40.3984375 C-55.56294922 39.55603516 -55.58292969 38.71363281 -55.60351562 37.84570312 C-55.59629086 28.46073631 -51.68863461 20.02836753 -45.10546875 13.3359375 C-31.78644854 2.91050634 -16.53842497 0.03497784 0 0 Z " fill="#FCFCFC" transform="translate(138.10546875,372.6640625)"/>
<path d="M0 0 C23.76 0 47.52 0 72 0 C75.25985535 7.82365283 78.32980992 15.51604997 81.046875 23.515625 C81.41572311 24.59013412 81.78457123 25.66464325 82.16459656 26.77171326 C82.95392866 29.07173848 83.74162444 31.37232583 84.52780151 33.6734314 C86.62038443 39.79704097 88.72590935 45.91619229 90.83203125 52.03515625 C91.26036758 53.28009354 91.68870392 54.52503082 92.13002014 55.80769348 C97.18002943 70.46138056 102.36600236 85.06648811 107.56738281 99.66699219 C117 126.15667251 117 126.15667251 117 129 C97.53 129 78.06 129 58 129 C54 115 54 115 54 112 C40.14 112 26.28 112 12 112 C11.01 115.96 10.02 119.92 9 124 C8.34 125.65 7.68 127.3 7 129 C-9.5 129 -26 129 -43 129 C-41.08438584 121.97608141 -39.12817156 115.1331025 -36.76171875 108.2734375 C-36.44805862 107.35479416 -36.1343985 106.43615082 -35.81123352 105.4896698 C-35.1299302 103.49539046 -34.44711634 101.50162664 -33.76293945 99.5083313 C-32.2786416 95.18377644 -30.80175806 90.85670087 -29.32449341 86.52973938 C-28.52233605 84.18024335 -27.71981649 81.83087095 -26.91696167 79.48161316 C-21.82860505 64.58642736 -16.78791718 49.6750992 -11.74484634 34.764534 C-10.75464728 31.837149 -9.76409469 28.90988369 -8.77351665 25.98262691 C-6.80309875 20.15983814 -4.83289945 14.33697534 -2.86328125 8.51391602 C-2.52594971 7.51667007 -2.18861816 6.51942413 -1.84106445 5.49195862 C-1.2236242 3.66256784 -0.61056556 1.83169669 0 0 Z " fill="#FDFDFD" transform="translate(409,374)"/>
<path d="M0 0 C23.88375 -0.061875 23.88375 -0.061875 48.25 -0.125 C55.76056152 -0.15231201 55.76056152 -0.15231201 63.42285156 -0.18017578 C69.58935547 -0.18920898 69.58935547 -0.18920898 72.48626709 -0.19088745 C74.48741549 -0.19393638 76.48856047 -0.20092381 78.48968506 -0.21115112 C98.75440619 -0.30944291 118.3967324 0.58701831 134.1875 14.99609375 C141.78145333 22.82735812 144.3414163 30.83862179 144.4375 41.5625 C144.25646707 53.20980207 141.26332658 62.3056488 133.18359375 70.94140625 C121.16345556 82.184485 104.13275434 86.39254176 88.0546875 86.1953125 C87.25877197 86.19329834 86.46285645 86.19128418 85.64282227 86.18920898 C82.72015471 86.17888548 79.79757045 86.15096513 76.875 86.125 C70.31625 86.08375 63.7575 86.0425 57 86 C57 100.19 57 114.38 57 129 C38.19 129 19.38 129 0 129 C0 86.43 0 43.86 0 0 Z " fill="#FDFDFD" transform="translate(235,374)"/>
<path d="M0 0 C3.44041227 0.0214736 6.87874195 0.00008075 10.3190918 -0.02539062 C31.54176625 -0.05187129 52.17695318 2.80519222 68.09057617 18.17382812 C77.04625245 27.83413883 79.37963867 38.63570092 79.37963867 51.52148438 C60.89963867 51.52148438 42.41963867 51.52148438 23.37963867 51.52148438 C22.38963867 48.22148437 21.39963867 44.92148437 20.37963867 41.52148438 C17.7211331 38.24947752 15.30858125 36.01513196 11.37963867 34.52148438 C8.54075225 34.27685088 5.84218112 34.15135988 3.00463867 34.14648438 C2.26213867 34.12199219 1.51963867 34.0975 0.75463867 34.07226562 C-4.5093789 34.04436447 -7.42242737 35.0943395 -11.62036133 38.52148438 C-16.02922952 43.38644238 -15.78831964 48.40610466 -15.82348633 54.72460938 C-15.83203644 55.9195401 -15.83203644 55.9195401 -15.84075928 57.13861084 C-15.85019104 58.82302531 -15.85673601 60.50745808 -15.8605957 62.19189453 C-15.8702751 64.74870663 -15.90130417 67.30470538 -15.93286133 69.86132812 C-15.93939487 71.50325047 -15.94464396 73.14517853 -15.94848633 74.78710938 C-15.96083313 75.54260071 -15.97317993 76.29809204 -15.98590088 77.07647705 C-15.96143565 83.00510811 -14.94342774 88.64758778 -11.10473633 93.39648438 C-4.55660246 97.64392256 2.81072351 97.51088505 10.37963867 96.52148438 C15.03534384 94.5629151 17.66688547 92.82447222 20.37963867 88.52148438 C21.36963867 85.55148437 22.35963867 82.58148438 23.37963867 79.52148438 C41.85963867 79.52148438 60.33963867 79.52148438 79.37963867 79.52148438 C79.37963867 86.02784503 79.29905172 90.58572727 77.37963867 96.52148438 C77.14631836 97.30394531 76.91299805 98.08640625 76.67260742 98.89257812 C72.72200113 110.45576823 63.25463409 118.85030856 52.75463867 124.64648438 C41.48007775 129.99295275 29.54524589 131.67158834 17.23510742 131.75976562 C15.61032219 131.77187325 15.61032219 131.77187325 13.95271301 131.78422546 C11.65892112 131.79803313 9.36510897 131.80877006 7.07128906 131.81665039 C4.75482038 131.82810927 2.4383768 131.84846286 0.12207031 131.87817383 C-21.93140831 132.1606073 -42.66884585 130.92286166 -59.43676758 114.79882812 C-69.53659636 104.26537521 -73.73669297 92.51244365 -73.85864258 78.08398438 C-73.86671432 77.16746094 -73.87478607 76.2509375 -73.88310242 75.30664062 C-73.89690929 73.36671824 -73.90764658 71.42677191 -73.91552734 69.48681641 C-73.92700004 67.52417769 -73.94737634 65.561569 -73.97705078 63.59912109 C-74.24944581 45.56017891 -72.31534767 30.81121557 -59.68286133 16.89648438 C-43.03603434 1.1945524 -21.69964908 -0.16095596 0 0 Z " fill="#FCFCFC" transform="translate(596.620361328125,372.478515625)"/>
<path d="M0 0 C39.6 0 79.2 0 120 0 C120 10.56 120 21.12 120 32 C99.21 32 78.42 32 57 32 C57 37.61 57 43.22 57 49 C74.49 49 91.98 49 110 49 C110 58.57 110 68.14 110 78 C92.51 78 75.02 78 57 78 C57 83.94 57 89.88 57 96 C78.12 96 99.24 96 121 96 C121 106.89 121 117.78 121 129 C81.07 129 41.14 129 0 129 C0 86.43 0 43.86 0 0 Z " fill="#FDFDFD" transform="translate(679,374)"/>
<path d="M0 0 C3.34125 -0.061875 6.6825 -0.12375 10.125 -0.1875 C11.68758545 -0.22846802 11.68758545 -0.22846802 13.28173828 -0.27026367 C18.59090995 -0.31774905 22.48711716 -0.12808857 27 3 C29.13802064 5.16959478 29.9001154 6.39775462 30.3984375 9.40234375 C30.31459264 18.47156267 30.31459264 18.47156267 27 22 C21.11195169 25.20743684 16.17478342 25.37170282 9.5625 25.1875 C4.8290625 25.0946875 4.8290625 25.0946875 0 25 C0 16.75 0 8.5 0 0 Z " fill="#010101" transform="translate(292,406)"/>
<path d="M0 0 C2 1 2 1 2.7902832 2.95507812 C3.04124756 3.80521484 3.29221191 4.65535156 3.55078125 5.53125 C3.83493896 6.47967773 4.11909668 7.42810547 4.41186523 8.40527344 C4.70907471 9.4265332 5.00628418 10.44779297 5.3125 11.5 C5.61937744 12.53415039 5.92625488 13.56830078 6.24243164 14.63378906 C6.86766041 16.74383437 7.48964674 18.85484314 8.10839844 20.96679688 C8.91657715 23.71619783 9.73938568 26.46053042 10.5703125 29.203125 C11.02633048 30.71866313 11.48207866 32.23428247 11.9375 33.75 C12.14866455 34.44544922 12.3598291 35.14089844 12.57739258 35.85742188 C13.41652191 38.68801356 14 41.02823697 14 44 C5.42 44 -3.16 44 -12 44 C-10.7028182 36.86550009 -9.38939654 30.46269537 -7.125 23.6875 C-6.59219051 22.04998577 -6.06095482 20.41195867 -5.53125 18.7734375 C-5.27214844 17.97389648 -5.01304687 17.17435547 -4.74609375 16.35058594 C-3.0288393 10.94033533 -1.51675343 5.46923443 0 0 Z " fill="#050505" transform="translate(441,416)"/>
</svg>
